<?xml version="1.0" encoding="UTF-8" standalone="no"?>
<svg
   xmlns:dc="http://purl.org/dc/elements/1.1/"
   xmlns:rdf="http://www.w3.org/1999/02/22-rdf-syntax-ns#"
   xmlns:svg="http://www.w3.org/2000/svg"
   xmlns="http://www.w3.org/2000/svg"
   viewBox="0 0 652.79999 652.79999"
   height="652.79999"
   width="652.79999"
   xml:space="preserve"
   id="svg2"
   version="1.1">
  <g
     transform="matrix(1.3333333,0,0,-1.3333333,0,652.8)"
     id="g10"><g
       transform="scale(0.1)"
       id="g12"><path
         id="path14"
         style="fill:#ae1556;fill-opacity:1;fill-rule:nonzero;stroke:none"
         d="M 3391.04,2992.38 V 1903.62 l -942.88,-544.37 -942.89,544.37 v 1088.76 l 942.89,544.37 c 314.29,-181.46 628.59,-362.91 942.88,-544.37 z M 1750.25,2850.94 v -805.88 l 697.91,-402.93 697.9,402.93 v 805.88 l -697.9,402.93 c -232.64,-134.31 -465.27,-268.62 -697.91,-402.93" /><path
         id="path16"
         style="fill:#ae1556;fill-opacity:1;fill-rule:evenodd;stroke:none"
         d="m 1834.95,2681.72 -463.55,124.36 -382.611,15.16 14.971,107.1 147.71,268.3 158.5,262.07 85.26,66.52 204.45,-323.77 339.47,-339.27 865.33,-619.91 -969.53,439.44" /></g></g>
</svg>